<?xml version="1.0" encoding="iso-8859-1"?>
<!-- Uploaded to: SVG Repo, www.svgrepo.com, Generator: SVG Repo Mixer Tools -->
<svg height="800px" width="800px" version="1.1" id="Layer_1" xmlns="http://www.w3.org/2000/svg" xmlns:xlink="http://www.w3.org/1999/xlink"
	 viewBox="0 0 512 512" xml:space="preserve">
<g transform="translate(1 1)">
	<path style="fill:#FFFFFF;" d="M237.933,417.133c0,23.893-18.773,42.667-42.667,42.667S152.6,441.027,152.6,417.133
		c0-23.893,18.773-42.667,42.667-42.667S237.933,393.24,237.933,417.133L237.933,417.133z"/>
	<path style="fill:#000000;" d="M195.267,468.333c-28.16,0-51.2-23.04-51.2-51.2c0-28.16,23.04-51.2,51.2-51.2s51.2,23.04,51.2,51.2
		C246.467,445.293,223.427,468.333,195.267,468.333z M195.267,383c-18.773,0-34.133,15.36-34.133,34.133s15.36,34.133,34.133,34.133
		s34.133-15.36,34.133-34.133S214.04,383,195.267,383z"/>
	<path style="fill:#FFFFFF;" d="M434.2,417.133c0,23.893-18.773,42.667-42.667,42.667s-42.667-18.773-42.667-42.667
		c0-23.893,18.773-42.667,42.667-42.667S434.2,393.24,434.2,417.133L434.2,417.133z"/>
	<g>
		<path style="fill:#000000;" d="M391.533,468.333c-28.16,0-51.2-23.04-51.2-51.2c0-28.16,23.04-51.2,51.2-51.2
			s51.2,23.04,51.2,51.2C442.733,445.293,419.693,468.333,391.533,468.333z M391.533,383c-18.773,0-34.133,15.36-34.133,34.133
			s15.36,34.133,34.133,34.133s34.133-15.36,34.133-34.133S410.307,383,391.533,383z"/>
		<path style="fill:#000000;" d="M476.867,417.133h-43.52c-5.12,0-8.533-3.413-8.533-8.533c0-5.12,3.413-8.533,8.533-8.533h43.52
			c5.12,0,8.533,3.413,8.533,8.533C485.4,413.72,481.987,417.133,476.867,417.133z M349.72,417.133H237.08
			c-5.12,0-8.533-3.413-8.533-8.533c0-5.12,3.413-8.533,8.533-8.533h112.64c5.12,0,8.533,3.413,8.533,8.533
			C358.253,413.72,354.84,417.133,349.72,417.133z"/>
	</g>
	<path style="fill:#ffffff;" d="M135.533,340.333L91.16,118.467h411.307V306.2c0,18.773-15.36,34.133-34.133,34.133H135.533"/>
	<g>
		<path style="fill:#000000;" d="M468.333,348.867H128.707L80.92,109.933H511V306.2C511,330.093,492.227,348.867,468.333,348.867z
			 M142.36,331.8h325.973c13.653,0,25.6-11.093,25.6-25.6V127h-391.68L142.36,331.8z"/>
		<path style="fill:#000000;" d="M91.16,127c-4.267,0-7.68-2.56-8.533-6.827l-5.12-35.84H58.733c-5.12,0-8.533-3.413-8.533-8.533
			c0-5.12,3.413-8.533,8.533-8.533H91.16l8.533,49.493c0.853,5.12-2.56,9.387-6.827,10.24C92.013,127,92.013,127,91.16,127z"/>
	</g>
	<path style="fill:#FFFFFF;" d="M58.733,75.8c0,14.507-11.093,25.6-25.6,25.6s-25.6-11.093-25.6-25.6s11.093-25.6,25.6-25.6
		S58.733,61.293,58.733,75.8L58.733,75.8z"/>
	<g>
		<path style="fill:#000000;" d="M33.133,109.933C14.36,109.933-1,94.573-1,75.8s15.36-34.133,34.133-34.133
			S67.267,57.027,67.267,75.8S51.907,109.933,33.133,109.933z M33.133,58.733c-9.387,0-17.067,7.68-17.067,17.067
			s7.68,17.067,17.067,17.067S50.2,85.187,50.2,75.8S42.52,58.733,33.133,58.733z"/>
		<path style="fill:#000000;" d="M153.453,417.133H127c-11.947,0-23.893-5.12-31.573-14.507c-7.68-8.533-11.947-21.333-11.093-33.28
			c2.56-20.48,21.333-37.547,44.373-37.547c5.12,0,8.533,3.413,8.533,8.533c0,5.12-3.413,8.533-8.533,8.533
			c-13.653,0-25.6,10.24-27.307,23.04c-0.853,7.68,1.707,14.507,6.827,19.627s11.947,8.533,18.773,8.533h26.453
			c5.12,0,8.533,3.413,8.533,8.533C161.987,413.72,158.573,417.133,153.453,417.133z"/>
	</g>
</g>
</svg>
